HIERARCHY
ROOT Hips
{
	OFFSET	0.000000	0.000000	0.000000
	CHANNELS 6 Xposition Yposition Zposition Zrotation Xrotation Yrotation
	JOINT LeftHip
	{
		OFFSET	4.740440	-3.195970	-0.322709
		CHANNELS 3 Zrotation Xrotation Yrotation
		JOINT LeftKnee
		{
			OFFSET	-1.605680	-15.592300	1.005510
			CHANNELS 3 Zrotation Xrotation Yrotation
			JOINT LeftAnkle
			{
				OFFSET	-0.632401	-16.421000	-1.413730
				CHANNELS 3 Zrotation Xrotation Yrotation
				End Site
				{
					OFFSET	0.008423	-2.933000	-1.684880
				}
			}
		}
	}
	JOINT RightHip
	{
		OFFSET	-4.740440	-3.195970	-0.322709
		CHANNELS 3 Zrotation Xrotation Yrotation
		JOINT RightKnee
		{
			OFFSET	1.605680	-15.592300	1.005510
			CHANNELS 3 Zrotation Xrotation Yrotation
			JOINT RightAnkle
			{
				OFFSET	0.632401	-16.421000	-1.413730
				CHANNELS 3 Zrotation Xrotation Yrotation
				End Site
				{
					OFFSET	-0.008423	-2.933000	-1.684880
				}
			}
		}
	}
	JOINT Chest
	{
		OFFSET	0.000000	3.468200	0.078401
		CHANNELS 3 Zrotation Xrotation Yrotation
		JOINT LeftCollar
		{
			OFFSET	3.857650	15.070700	-0.011583
			CHANNELS 3 Zrotation Xrotation Yrotation
			JOINT LeftShoulder
			{
				OFFSET	3.979720	-1.940530	-0.165223
				CHANNELS 3 Zrotation Xrotation Yrotation
				JOINT LeftElbow
				{
					OFFSET	0.615844	-10.986600	-0.673886
					CHANNELS 3 Zrotation Xrotation Yrotation
					JOINT LeftWrist
					{
						OFFSET	0.826843	-10.854500	1.034220
						CHANNELS 3 Zrotation Xrotation Yrotation
						End Site
						{
							OFFSET	-1.679080	-8.456540	0.936217
						}
					}
				}
			}
		}
		JOINT RightCollar
		{
			OFFSET	-3.857650	15.070700	-0.011583
			CHANNELS 3 Zrotation Xrotation Yrotation
			JOINT RightShoulder
			{
				OFFSET	-3.979720	-1.940530	-0.165223
				CHANNELS 3 Zrotation Xrotation Yrotation
				JOINT RightElbow
				{
					OFFSET	-0.615845	-10.986600	-0.673886
					CHANNELS 3 Zrotation Xrotation Yrotation
					JOINT RightWrist
					{
						OFFSET	-0.826843	-10.854500	1.034220
						CHANNELS 3 Zrotation Xrotation Yrotation
						End Site
						{
							OFFSET	1.679080	-8.456540	0.936217
						}
					}
				}
			}
		}
		JOINT Neck
		{
			OFFSET	0.000000	15.101400	0.055730
			CHANNELS 3 Zrotation Xrotation Yrotation
			JOINT Head
			{
				OFFSET	0.000000	4.185120	1.488260
				CHANNELS 3 Zrotation Xrotation Yrotation
				End Site
				{
					OFFSET	0.000000	7.773420	-0.106016
				}
			}
		}
	}
}
MOTION
Frames:     21
Frame Time: 0.016667
-3.152813	37.237583	16.294847	-1.378487	-4.449767	-5.952192	10.540269	-0.008190	2.672791	-0.343553	52.093716	-13.441955	-2.750206	15.831937	5.169935	3.125679	-8.997081	3.980163	4.385809	15.359797	3.722544	-5.558696	-3.014833	-0.492470	1.062854	5.111429	-1.578759	0.738412	0.596968	0.789008	9.173838	1.994956	3.828398	-13.147435	-12.694422	-17.487154	19.604225	8.237028	-20.609280	3.145785	2.277356	0.019608	-2.479727	4.422783	-8.480261	-0.371591	-6.492810	8.431648	-25.754391	-2.042524	16.369759	3.180552	-2.844069	-0.748324	-1.374778	-3.637813	2.964616	
-3.374022	37.196373	16.762011	-1.863911	-4.832161	-6.216441	11.087850	-1.447175	3.227797	1.017040	55.569187	-14.040017	-2.386683	13.013657	6.166997	3.728819	-7.699744	3.688408	4.682490	15.434893	4.042713	-5.796521	-3.542980	-0.133633	1.448071	5.339660	-0.709445	0.709820	0.750253	0.856606	9.175619	2.124524	4.033193	-13.451197	-13.052545	-17.261978	19.138746	8.506886	-19.974165	3.039594	2.330912	0.544155	-3.078025	3.520558	-7.816274	-0.118697	-8.163980	8.227798	-25.519520	-2.010548	16.464508	3.025971	-2.597894	-0.505412	-1.476004	-3.611170	2.340038	
-3.486045	37.220428	17.059076	-1.994790	-4.964550	-6.340154	11.195855	-3.166379	3.607553	1.962027	57.686111	-14.371703	-1.898573	10.947636	7.374136	4.048434	-6.684750	3.341228	4.449458	14.919093	4.496262	-5.820020	-3.736552	0.032380	1.545279	5.401505	-0.422507	0.685194	0.843126	1.425857	9.172588	2.141183	3.753723	-13.564667	-13.214738	-17.345236	19.067707	8.583790	-19.788176	3.012167	2.318149	0.728132	-3.338061	3.257793	-7.608955	-0.014902	-8.753852	8.262409	-25.392330	-2.024830	16.504185	2.971846	-2.478372	-0.420724	-1.519472	-3.631972	2.172745	
-3.668765	37.208366	17.529453	-2.225843	-5.277511	-6.698859	11.393403	-4.728222	4.070803	3.815923	59.444447	-14.044618	-1.681664	9.093465	7.008047	4.393537	-5.400723	3.253762	4.556707	14.840076	4.595281	-5.845249	-4.343563	0.503140	1.685560	5.518336	0.322438	0.748168	1.132619	1.725213	8.912752	2.547735	4.430702	-13.865158	-13.688040	-17.584475	19.101631	8.624619	-19.347260	2.927668	2.264533	1.318208	-4.289945	2.320095	-7.018736	0.317551	-10.492794	8.526319	-24.895685	-2.057698	16.688997	2.764557	-2.131450	-0.126105	-1.541341	-3.502679	1.830137	
-3.736759	37.217300	17.719995	-2.255161	-5.306285	-6.830758	11.414556	-6.621747	4.257827	4.636008	61.027084	-14.144058	-1.445456	8.378757	7.088647	4.489090	-4.894275	3.183431	4.528341	14.627254	4.683475	-5.865917	-4.510270	0.666336	1.689111	5.467441	0.585318	0.787279	1.263934	1.946518	8.803374	2.671407	4.518857	-13.957056	-13.828462	-17.650873	19.172655	8.601056	-19.204262	2.894782	2.234200	1.477057	-4.642314	1.980324	-6.823411	0.428849	-11.040062	8.674859	-24.678278	-2.076172	16.745975	2.670267	-2.004956	-0.004773	-1.534374	-3.421447	1.677896	
-3.917597	37.244808	18.286411	-2.340268	-5.371968	-7.249623	11.489750	-8.356374	4.664289	5.343003	61.043819	-13.532961	-0.346307	6.461479	7.146309	4.720517	-3.369846	3.017576	4.467767	13.901519	4.987016	-5.879414	-4.951827	1.202112	1.777159	5.325273	1.355975	0.897187	1.614198	2.544309	8.398378	3.231598	4.727158	-14.199994	-14.252398	-17.869637	19.476807	8.544272	-18.801809	2.664800	2.020181	1.893378	-5.690741	1.007203	-6.305387	0.716078	-12.639891	9.162021	-23.919067	-2.208629	17.009626	2.225578	-1.654494	0.194884	-1.372403	-3.092180	1.458197	
-3.966010	37.254158	18.472265	-2.397883	-5.453500	-7.403603	11.426590	-10.021868	4.836704	5.850566	61.917133	-13.615211	0.059211	5.822292	7.083954	4.808840	-2.781632	2.970940	4.411467	13.623204	5.089747	-5.835549	-5.094698	1.297025	1.829028	5.320802	1.636880	0.952526	1.745111	2.709904	8.249245	3.458714	4.775530	-14.287468	-14.381795	-17.963015	19.559597	8.547305	-18.693216	2.572921	1.938379	2.013592	-6.033010	0.723928	-6.212504	0.808364	-13.210839	9.332516	-23.617977	-2.236750	17.146137	2.058324	-1.511162	0.169803	-1.284284	-2.967930	1.476001	
-4.090664	37.275616	19.032410	-2.610284	-5.853611	-7.876401	11.459888	-11.214872	5.189946	5.277584	60.178631	-12.705402	0.681022	3.910334	6.883728	5.068175	-0.841173	2.864306	4.220109	12.779305	5.340652	-5.676689	-5.512853	1.732676	2.006360	5.563860	2.421535	1.159726	1.998206	3.270992	7.867847	4.239293	4.864143	-14.614574	-14.623398	-18.329905	19.664356	8.606929	-18.554144	2.253173	1.635041	2.438301	-6.977928	-0.077631	-6.065212	1.007092	-15.065636	9.691221	-22.622620	-2.254523	17.531382	1.586197	-1.225757	0.206269	-1.007727	-2.539599	1.463539	
-4.126582	37.281956	19.215935	-2.686889	-5.977860	-8.036974	11.424305	-11.899788	5.233518	4.865403	59.626755	-12.210254	0.723484	3.374540	6.800972	5.144290	-0.205195	2.840034	4.163430	12.492123	5.403589	-5.612659	-5.681240	1.883611	2.080283	5.657393	2.679928	1.211864	2.068899	3.459792	7.761986	4.512158	4.891041	-14.747954	-14.672288	-18.500853	19.654501	8.679137	-18.585670	2.124724	1.532494	2.576959	-7.253941	-0.349530	-6.056046	1.017885	-15.694870	9.796281	-22.290419	-2.230230	17.577782	1.454404	-1.135592	0.243069	-0.937427	-2.420931	1.423352	
-4.228621	37.300877	19.780716	-2.802909	-6.139672	-8.461030	11.243755	-14.022053	5.252978	3.261709	57.210117	-10.462676	0.297426	2.137362	6.653684	5.262103	1.472812	2.900394	4.024527	11.611279	5.508414	-5.422050	-6.098463	2.273407	2.302781	5.897904	3.383745	1.272159	2.159029	4.045494	7.436889	5.344606	5.037798	-15.168216	-14.763299	-19.154758	19.484428	8.893887	-18.813938	1.593872	1.085958	2.952844	-8.028624	-1.160082	-6.006656	1.063502	-17.641951	9.947254	-21.349457	-2.095938	17.605963	1.022578	-1.060871	0.387330	-0.688602	-2.056757	1.262067	
-4.254615	37.307308	19.975258	-2.821527	-6.162345	-8.589916	11.164485	-14.698639	5.208505	2.689627	56.159508	-9.832995	0.033394	1.817498	6.646079	5.257334	2.006504	2.930862	4.001204	11.309011	5.552711	-5.385324	-6.230138	2.341657	2.312168	5.911816	3.590998	1.356792	2.247365	4.261342	7.306421	5.630640	5.098327	-15.294009	-14.798891	-19.395153	19.384489	8.977505	-18.952223	1.473277	0.992589	3.097174	-8.279169	-1.419576	-6.001376	1.083651	-18.299688	9.972807	-21.102104	-2.054879	17.545576	0.955972	-1.000561	0.450845	-0.576043	-1.957828	1.187465	
-4.307169	37.319805	20.561163	-2.939036	-6.187922	-8.900502	10.926602	-16.504650	5.059613	0.814377	52.277588	-7.753207	-0.648674	1.010505	6.774823	5.246202	3.612733	2.949213	3.967331	10.326201	5.671244	-5.245050	-6.628676	2.615027	2.448401	5.981439	4.091587	1.556270	2.512085	4.920771	6.912257	6.474076	5.273059	-15.634409	-14.911856	-20.083614	19.027273	9.227521	-19.382048	1.052992	0.736420	3.505888	-8.999983	-2.151166	-5.941094	1.041632	-20.304852	9.826255	-20.399443	-2.026147	17.474760	0.786301	-0.865119	0.665031	-0.478239	-1.683974	0.916100	
-4.312606	37.320961	20.759186	-2.993058	-6.187904	-8.992217	10.856071	-17.027235	5.048748	0.320472	50.762592	-7.079826	-0.900683	0.788263	6.780140	5.238568	4.137665	2.939880	3.950658	10.011930	5.704346	-5.188208	-6.781189	2.694485	2.542753	6.023991	4.272955	1.577216	2.573530	5.079364	6.787167	6.780808	5.361416	-15.727611	-14.956614	-20.292202	18.904415	9.310033	-19.542356	0.888116	0.636521	3.594244	-9.234906	-2.372583	-5.924684	1.031518	-20.968306	9.801621	-20.451803	-2.980240	17.370729	0.644591	-0.781833	0.825963	-0.394094	-1.657577	0.706598	
-4.294760	37.314083	21.381527	-3.128451	-6.107397	-9.286100	10.584975	-18.322367	5.322418	-0.649503	45.610428	-5.228946	-1.855808	0.304199	6.715670	5.144552	5.574336	2.991538	3.920244	9.242208	5.871647	-5.147566	-7.400391	2.874844	2.709460	6.009817	4.648359	1.738842	2.850105	5.797832	6.383988	7.763149	5.531470	-15.937024	-15.148916	-20.779942	18.334040	9.947889	-19.856421	0.404608	0.441993	3.945839	-9.821070	-2.972459	-5.767560	0.942360	-22.894464	9.793797	-19.732880	-2.051324	17.257193	0.499820	-0.698611	0.958604	-0.260334	-1.427095	0.567184	
-4.289632	37.303844	21.600889	-3.169145	-5.908406	-9.300423	10.470814	-18.822540	5.425806	-0.852411	43.650867	-4.676153	-2.172599	0.298310	6.705647	5.129293	5.869169	3.002600	3.961120	9.014326	5.935220	-5.220062	-7.605053	2.867328	2.760332	5.898026	4.760201	1.822866	2.878768	5.952818	6.250244	8.075913	5.620405	-15.984185	-15.191866	-20.906559	18.030313	10.474731	-19.812166	0.270362	0.302044	3.992150	-10.670546	-3.621587	-5.306867	1.326499	-22.958923	9.302854	-19.819395	-2.937469	17.182510	0.425918	-0.701397	1.126556	-0.168197	-1.389975	0.315652	
-4.313584	37.290649	22.246170	-3.183436	-5.596834	-9.230314	9.910555	-19.837503	5.602006	-1.523615	37.318039	-3.050084	-3.112267	0.819045	6.885810	5.006041	7.015851	3.197036	4.100217	8.313622	5.937073	-5.564517	-8.155062	2.741494	2.723477	5.634696	4.914514	2.144250	3.085205	6.519540	5.739484	9.110310	5.871759	-15.948323	-15.361290	-21.209234	18.002409	10.258013	-20.172434	-0.046519	0.066702	4.164800	-10.886292	-3.837835	-5.281574	1.001313	-24.777664	9.562727	-19.494053	-2.918286	17.075594	0.473606	-0.695169	1.144734	-0.056068	-1.185519	0.231985	
-4.327672	37.272648	22.467712	-3.203380	-5.229967	-9.004128	9.737184	-20.398556	5.472476	-1.724458	35.081322	-2.545882	-3.506641	1.206215	7.003456	5.049943	7.129754	3.134062	4.181791	8.091780	5.926493	-5.717049	-8.362595	2.635418	2.770244	5.287080	4.823915	2.239949	3.098371	6.635001	5.580843	9.497205	5.986051	-15.891050	-15.403915	-21.260817	17.809868	10.821171	-20.022030	-0.126178	-0.019823	4.148221	-11.381298	-4.148096	-5.022867	1.161847	-25.045588	9.357455	-19.562750	-3.525112	17.167856	0.484777	-0.685915	1.120465	-0.033434	-1.120443	0.179131	
-4.437742	37.186306	23.184372	-3.276907	-4.808494	-8.704897	9.313066	-21.216749	5.186238	-2.514616	28.312527	-1.078927	-4.731800	2.442898	7.508677	5.064194	8.198261	3.443846	4.662675	7.592112	6.133710	-6.646724	-9.202985	1.902391	2.757129	4.971785	4.847628	2.593265	3.108859	7.015554	4.990392	10.645186	6.309215	-15.537198	-15.544883	-21.169775	17.823101	10.504145	-20.430708	-0.284481	-0.266820	4.160905	-11.634037	-4.267297	-5.024312	0.882770	-26.501431	9.616937	-19.050522	-2.765328	17.037838	0.516402	-0.714100	1.075200	0.019605	-0.962821	0.046807	
-4.434936	37.170177	23.331583	-3.408766	-4.332516	-8.390234	9.299592	-21.792402	4.794865	-2.834923	26.025759	-0.480039	-5.164822	2.955423	7.562632	5.256675	8.225226	3.389106	4.704528	7.067940	5.949951	-6.808538	-9.172038	1.954876	2.895337	4.529645	4.671515	2.768879	3.110096	7.129129	4.779536	11.019453	6.385406	-15.390860	-15.560108	-21.079107	17.731915	11.108044	-20.115379	-0.349575	-0.329456	4.095781	-11.730907	-4.359236	-4.960488	0.854334	-26.853558	9.656322	-19.069605	-3.140995	17.081423	0.558503	-0.754705	1.037916	0.048883	-0.893584	0.020560	
-4.557254	37.058739	24.025902	-3.607955	-3.777615	-8.136467	9.301087	-22.516476	4.048418	-3.895739	19.108667	1.287968	-6.381444	4.983869	7.368880	5.510243	9.127543	3.944908	5.101170	6.513954	6.164512	-7.910840	-9.814697	1.075543	2.865243	4.039553	4.709401	3.292897	3.073690	7.534808	4.184906	12.124770	6.620489	-14.848619	-15.530000	-20.743427	17.770718	10.760974	-20.445896	-0.435210	-0.496790	3.946319	-11.981129	-4.529757	-4.739684	0.762408	-27.714615	9.620318	-18.620916	-2.594275	16.974291	0.728581	-0.849154	1.038134	0.110244	-0.690707	-0.113891	
-4.594675	37.002335	24.273739	-3.781595	-3.259391	-7.901968	9.421446	-23.040154	3.636533	-4.205427	16.847670	1.745721	-6.844652	5.522083	7.210740	5.800193	9.083537	3.987293	5.178535	6.397232	6.163297	-8.203451	-10.051164	0.840053	3.026649	3.528537	4.569818	3.414173	3.057420	7.675712	4.053827	12.496683	6.704158	-14.664114	-15.492358	-20.639421	17.728495	11.390944	-20.221973	-0.471956	-0.524961	3.901475	-12.194586	-4.595216	-4.683231	0.872140	-27.887840	9.567687	-18.522291	-2.540100	16.935204	0.773059	-0.871403	1.229676	0.115774	-0.657923	-0.328247	
